<?xml version="1.0" encoding="UTF-8"?>
<svg xmlns="http://www.w3.org/2000/svg" xmlns:xlink="http://www.w3.org/1999/xlink" width="169px" height="48px" viewBox="0 0 168 48" version="1.1">
<g id="surface1">
<path style=" stroke:none;fill-rule:nonzero;fill:rgb(10.196078%,81.960784%,64.705882%);fill-opacity:1;" d="M 17.921875 31.441406 L 29.867188 31.441406 C 33.164062 31.441406 35.839844 34.125 35.839844 37.441406 C 35.839844 40.753906 33.164062 43.441406 29.867188 43.441406 L 17.921875 43.441406 C 14.621094 43.441406 11.945312 40.753906 11.945312 37.441406 C 11.945312 34.125 14.621094 31.441406 17.921875 31.441406 Z M 17.921875 31.441406 "/>
<path style=" stroke:none;fill-rule:nonzero;fill:rgb(100%,100%,100%);fill-opacity:1;" d="M 35.839844 16.558594 C 35.839844 23.1875 30.492188 28.558594 23.894531 28.558594 C 17.296875 28.558594 11.945312 23.1875 11.945312 16.558594 C 11.945312 9.933594 17.296875 4.558594 23.894531 4.558594 C 30.492188 4.558594 35.839844 9.933594 35.839844 16.558594 Z M 35.839844 16.558594 "/>
<path style="fill:none;stroke-width:10;stroke-linecap:butt;stroke-linejoin:miter;stroke:rgb(0%,0%,0%);stroke-opacity:0.2;stroke-miterlimit:4;" d="M 773.018973 353.25 C 773.018973 497.416667 656.166295 614.25 512.02567 614.25 C 367.885045 614.25 251.032366 497.416667 251.032366 353.25 C 251.032366 209.166667 367.885045 92.25 512.02567 92.25 C 656.166295 92.25 773.018973 209.166667 773.018973 353.25 Z M 773.018973 353.25 " transform="matrix(0.0466667,0,0,0.046875,0,0)"/>
<path style=" stroke:none;fill-rule:nonzero;fill:rgb(100%,60%,1.176471%);fill-opacity:1;" d="M 29.246094 16.558594 C 29.246094 19.527344 26.847656 21.9375 23.894531 21.9375 C 20.9375 21.9375 18.542969 19.527344 18.542969 16.558594 C 18.542969 13.589844 20.9375 11.183594 23.894531 11.183594 C 26.847656 11.183594 29.246094 13.589844 29.246094 16.558594 Z M 29.246094 16.558594 "/>
<path style=" stroke:none;fill-rule:nonzero;fill:rgb(10.196078%,81.960784%,64.705882%);fill-opacity:1;" d="M 130.128906 34.179688 C 128.390625 34.179688 126.898438 33.863281 125.648438 33.226562 C 124.398438 32.585938 123.433594 31.679688 122.761719 30.496094 C 122.109375 29.296875 121.78125 27.871094 121.78125 26.222656 L 126.964844 26.222656 C 126.964844 26.878906 127.09375 27.441406 127.355469 27.910156 C 127.617188 28.378906 127.980469 28.734375 128.445312 28.976562 C 128.933594 29.222656 129.511719 29.34375 130.183594 29.34375 C 130.855469 29.34375 131.433594 29.222656 131.917969 28.976562 C 132.40625 28.734375 132.769531 28.378906 133.011719 27.910156 C 133.273438 27.441406 133.402344 26.878906 133.402344 26.222656 L 138.582031 26.222656 C 138.582031 27.871094 138.246094 29.296875 137.574219 30.496094 C 136.902344 31.679688 135.933594 32.585938 134.664062 33.226562 C 133.414062 33.863281 131.902344 34.179688 130.128906 34.179688 Z M 121.78125 26.222656 L 121.78125 14.15625 L 126.964844 14.15625 L 126.964844 26.222656 Z M 133.402344 26.222656 L 133.402344 14.15625 L 138.582031 14.15625 L 138.582031 26.222656 Z M 133.402344 26.222656 "/>
<path style=" stroke:none;fill-rule:nonzero;fill:rgb(10.196078%,81.960784%,64.705882%);fill-opacity:1;" d="M 141.667969 33.84375 L 141.667969 14.15625 L 146.847656 14.15625 L 146.847656 33.84375 Z M 141.667969 33.84375 "/>
<path style=" stroke:none;fill-rule:nonzero;fill:rgb(0%,0%,0%);fill-opacity:1;" d="M 59.769531 33.84375 L 59.519531 31.226562 L 59.519531 14.15625 L 64.558594 14.15625 L 64.558594 33.84375 Z M 55.792969 34.179688 C 54.46875 34.179688 53.332031 33.890625 52.378906 33.308594 C 51.445312 32.726562 50.726562 31.882812 50.222656 30.777344 C 49.71875 29.671875 49.464844 28.351562 49.464844 26.8125 C 49.464844 25.257812 49.71875 23.933594 50.222656 22.847656 C 50.726562 21.742188 51.445312 20.898438 52.378906 20.316406 C 53.332031 19.734375 54.46875 19.445312 55.792969 19.445312 C 56.953125 19.445312 57.902344 19.734375 58.652344 20.316406 C 59.414062 20.898438 59.976562 21.742188 60.332031 22.847656 C 60.703125 23.933594 60.890625 25.257812 60.890625 26.8125 C 60.890625 28.351562 60.703125 29.671875 60.332031 30.777344 C 59.976562 31.882812 59.414062 32.726562 58.652344 33.308594 C 57.902344 33.890625 56.953125 34.179688 55.792969 34.179688 Z M 57.136719 29.511719 C 57.605469 29.511719 58.015625 29.398438 58.371094 29.175781 C 58.742188 28.929688 59.035156 28.613281 59.238281 28.21875 C 59.445312 27.804688 59.546875 27.335938 59.546875 26.8125 C 59.546875 26.289062 59.445312 25.828125 59.238281 25.433594 C 59.035156 25.023438 58.742188 24.703125 58.371094 24.476562 C 58.015625 24.253906 57.597656 24.140625 57.109375 24.140625 C 56.664062 24.140625 56.261719 24.253906 55.90625 24.476562 C 55.550781 24.703125 55.273438 25.023438 55.066406 25.433594 C 54.863281 25.828125 54.75 26.289062 54.730469 26.8125 C 54.75 27.335938 54.863281 27.804688 55.066406 28.21875 C 55.273438 28.613281 55.550781 28.929688 55.90625 29.175781 C 56.28125 29.398438 56.691406 29.511719 57.136719 29.511719 Z M 57.136719 29.511719 "/>
<path style=" stroke:none;fill-rule:nonzero;fill:rgb(0%,0%,0%);fill-opacity:1;" d="M 75.242188 33.84375 L 75.101562 30.609375 L 75.101562 26.953125 C 75.101562 26.296875 75.0625 25.707031 74.988281 25.179688 C 74.914062 24.65625 74.726562 24.242188 74.429688 23.945312 C 74.128906 23.644531 73.644531 23.492188 72.972656 23.492188 C 72.507812 23.492188 72.125 23.605469 71.824219 23.832031 C 71.527344 24.054688 71.273438 24.320312 71.070312 24.617188 L 66.671875 23.210938 C 67.066406 22.445312 67.550781 21.777344 68.128906 21.214844 C 68.726562 20.652344 69.417969 20.222656 70.199219 19.921875 C 71.003906 19.601562 71.890625 19.445312 72.859375 19.445312 C 74.355469 19.445312 75.632812 19.714844 76.695312 20.257812 C 77.761719 20.804688 78.574219 21.5625 79.132812 22.539062 C 79.691406 23.511719 79.972656 24.648438 79.972656 25.941406 L 79.972656 33.84375 Z M 71.515625 34.179688 C 69.894531 34.179688 68.625 33.816406 67.710938 33.085938 C 66.8125 32.335938 66.363281 31.265625 66.363281 29.878906 C 66.363281 28.414062 66.8125 27.335938 67.710938 26.644531 C 68.625 25.929688 69.894531 25.574219 71.515625 25.574219 L 75.632812 25.574219 L 75.632812 28.472656 L 73.503906 28.472656 C 72.851562 28.472656 72.347656 28.585938 71.992188 28.808594 C 71.636719 29.035156 71.460938 29.351562 71.460938 29.765625 C 71.460938 30.046875 71.582031 30.261719 71.824219 30.414062 C 72.066406 30.5625 72.402344 30.636719 72.832031 30.636719 C 73.300781 30.636719 73.699219 30.554688 74.039062 30.382812 C 74.375 30.195312 74.632812 29.945312 74.820312 29.625 C 75.007812 29.289062 75.101562 28.902344 75.101562 28.472656 L 76.417969 28.472656 C 76.417969 30.289062 75.988281 31.695312 75.128906 32.691406 C 74.269531 33.683594 73.066406 34.179688 71.515625 34.179688 Z M 71.515625 34.179688 "/>
<path style=" stroke:none;fill-rule:nonzero;fill:rgb(0%,0%,0%);fill-opacity:1;" d="M 82.628906 33.84375 L 82.628906 19.78125 L 87.671875 19.78125 L 87.671875 33.84375 Z M 85.148438 18.429688 C 84.402344 18.429688 83.75 18.148438 83.191406 17.585938 C 82.628906 17.023438 82.351562 16.367188 82.351562 15.617188 C 82.351562 14.851562 82.628906 14.195312 83.191406 13.648438 C 83.75 13.085938 84.402344 12.804688 85.148438 12.804688 C 85.914062 12.804688 86.570312 13.085938 87.109375 13.648438 C 87.671875 14.195312 87.949219 14.851562 87.949219 15.617188 C 87.949219 16.367188 87.671875 17.023438 87.109375 17.585938 C 86.570312 18.148438 85.914062 18.429688 85.148438 18.429688 Z M 85.148438 18.429688 "/>
<path style=" stroke:none;fill-rule:nonzero;fill:rgb(0%,0%,0%);fill-opacity:1;" d="M 95.761719 34.179688 C 94.828125 34.179688 93.960938 34.050781 93.160156 33.789062 C 92.355469 33.523438 91.664062 33.160156 91.085938 32.691406 C 90.527344 32.203125 90.136719 31.621094 89.910156 30.945312 L 93.914062 29.371094 C 94.121094 29.878906 94.410156 30.207031 94.785156 30.355469 C 95.15625 30.488281 95.484375 30.554688 95.761719 30.554688 C 96.0625 30.554688 96.304688 30.488281 96.492188 30.355469 C 96.679688 30.226562 96.769531 30.039062 96.769531 29.792969 C 96.769531 29.53125 96.640625 29.316406 96.378906 29.148438 C 96.117188 28.960938 95.714844 28.800781 95.175781 28.667969 L 94.027344 28.386719 C 92.777344 28.070312 91.832031 27.515625 91.199219 26.726562 C 90.566406 25.941406 90.246094 25.023438 90.246094 23.972656 C 90.246094 22.527344 90.769531 21.414062 91.816406 20.625 C 92.878906 19.835938 94.316406 19.445312 96.128906 19.445312 C 97.230469 19.445312 98.152344 19.585938 98.898438 19.867188 C 99.664062 20.128906 100.289062 20.503906 100.773438 20.992188 C 101.261719 21.476562 101.632812 22.039062 101.894531 22.679688 L 98.003906 24.167969 C 97.871094 23.792969 97.648438 23.523438 97.332031 23.351562 C 97.03125 23.183594 96.660156 23.101562 96.210938 23.101562 C 95.894531 23.101562 95.640625 23.175781 95.457031 23.324219 C 95.289062 23.476562 95.203125 23.652344 95.203125 23.859375 C 95.203125 24.085938 95.332031 24.28125 95.59375 24.449219 C 95.875 24.601562 96.296875 24.75 96.855469 24.898438 L 98.003906 25.179688 C 98.863281 25.386719 99.609375 25.707031 100.242188 26.136719 C 100.878906 26.550781 101.371094 27.066406 101.726562 27.683594 C 102.082031 28.304688 102.257812 29.015625 102.257812 29.820312 C 102.257812 30.742188 101.988281 31.527344 101.449219 32.183594 C 100.90625 32.820312 100.148438 33.320312 99.179688 33.675781 C 98.207031 34.011719 97.070312 34.179688 95.761719 34.179688 Z M 95.761719 34.179688 "/>
<path style=" stroke:none;fill-rule:nonzero;fill:rgb(0%,0%,0%);fill-opacity:1;" d="M 108.453125 39.804688 C 107.800781 39.804688 107.109375 39.675781 106.382812 39.414062 C 105.652344 39.167969 105.074219 38.90625 104.644531 38.625 L 106.519531 34.546875 C 106.726562 34.714844 106.941406 34.847656 107.164062 34.941406 C 107.40625 35.054688 107.632812 35.109375 107.835938 35.109375 C 108.136719 35.109375 108.414062 35.035156 108.675781 34.882812 C 108.957031 34.734375 109.171875 34.480469 109.320312 34.125 L 111 30.1875 L 114.78125 19.78125 L 120.382812 19.78125 L 114.363281 34.351562 C 113.933594 35.398438 113.484375 36.335938 113.015625 37.164062 C 112.550781 37.988281 111.960938 38.632812 111.253906 39.101562 C 110.5625 39.570312 109.628906 39.804688 108.453125 39.804688 Z M 109.683594 33.84375 L 102.964844 19.78125 L 108.566406 19.78125 L 112.738281 30.1875 L 114.445312 33.84375 Z M 109.683594 33.84375 "/>
</g>
</svg>
