<?xml version="1.0" encoding="UTF-8"?>
<svg xmlns="http://www.w3.org/2000/svg" xmlns:xlink="http://www.w3.org/1999/xlink" width="48px" height="48px" viewBox="0 0 48 48" version="1.1">
<g id="surface1">
<path style=" stroke:none;fill-rule:nonzero;fill:rgb(0%,0%,0%);fill-opacity:1;" d="M 22.429688 0.0117188 C 22.324219 0.0234375 21.996094 0.0546875 21.699219 0.078125 C 14.882812 0.691406 8.496094 4.371094 4.453125 10.023438 C 2.199219 13.167969 0.761719 16.734375 0.214844 20.507812 C 0.0234375 21.828125 0 22.21875 0 24.003906 C 0 25.792969 0.0234375 26.179688 0.214844 27.5 C 1.519531 36.511719 7.933594 44.082031 16.632812 46.890625 C 18.191406 47.390625 19.832031 47.734375 21.699219 47.941406 C 22.429688 48.019531 25.570312 48.019531 26.300781 47.941406 C 29.523438 47.582031 32.253906 46.785156 34.945312 45.410156 C 35.359375 45.199219 35.4375 45.144531 35.382812 45.097656 C 35.34375 45.070312 33.585938 42.710938 31.472656 39.855469 L 27.636719 34.671875 L 22.828125 27.554688 C 20.179688 23.644531 18.003906 20.445312 17.984375 20.445312 C 17.964844 20.4375 17.945312 23.601562 17.9375 27.460938 C 17.921875 34.222656 17.917969 34.496094 17.835938 34.652344 C 17.710938 34.882812 17.617188 34.976562 17.421875 35.082031 C 17.273438 35.15625 17.140625 35.171875 16.433594 35.171875 L 15.621094 35.171875 L 15.402344 35.035156 C 15.261719 34.945312 15.160156 34.828125 15.089844 34.691406 L 14.992188 34.480469 L 15 25.074219 L 15.015625 15.664062 L 15.160156 15.480469 C 15.234375 15.382812 15.394531 15.253906 15.507812 15.195312 C 15.699219 15.101562 15.773438 15.089844 16.585938 15.089844 C 17.542969 15.089844 17.703125 15.128906 17.953125 15.402344 C 18.023438 15.476562 20.625 19.398438 23.742188 24.121094 C 26.859375 28.847656 31.117188 35.296875 33.210938 38.464844 L 37.011719 44.21875 L 37.203125 44.09375 C 38.90625 42.984375 40.707031 41.410156 42.136719 39.769531 C 45.171875 36.28125 47.128906 32.03125 47.785156 27.5 C 47.976562 26.179688 48 25.792969 48 24.003906 C 48 22.21875 47.976562 21.828125 47.785156 20.507812 C 46.480469 11.496094 40.066406 3.925781 31.367188 1.121094 C 29.832031 0.621094 28.199219 0.28125 26.371094 0.0742188 C 25.917969 0.0273438 22.816406 -0.0234375 22.429688 0.0117188 Z M 32.253906 14.527344 C 32.480469 14.640625 32.660156 14.855469 32.726562 15.082031 C 32.765625 15.203125 32.773438 17.8125 32.765625 23.691406 L 32.75 32.125 L 31.261719 29.84375 L 29.769531 27.566406 L 29.769531 21.433594 C 29.769531 17.46875 29.789062 15.242188 29.816406 15.132812 C 29.894531 14.871094 30.058594 14.664062 30.28125 14.542969 C 30.476562 14.445312 30.546875 14.433594 31.28125 14.433594 C 31.976562 14.433594 32.097656 14.445312 32.253906 14.527344 Z M 32.253906 14.527344 "/>
</g>
</svg>
