<?xml version="1.0" encoding="UTF-8"?>
<svg xmlns="http://www.w3.org/2000/svg" xmlns:xlink="http://www.w3.org/1999/xlink" width="48px" height="46px" viewBox="0 0 48 46" version="1.1">
<g id="surface1">
<path style=" stroke:none;fill-rule:nonzero;fill:rgb(46.27451%,29.019608%,73.72549%);fill-opacity:1;" d="M 33.257812 32 C 35.03125 31.8125 36.375 30.277344 36.3125 28.4375 C 36.253906 26.59375 34.726562 25.121094 32.890625 25.121094 L 32.769531 25.121094 C 30.875 25.179688 29.410156 26.777344 29.472656 28.683594 C 29.53125 29.601562 29.898438 30.402344 30.449219 30.953125 C 28.371094 35.070312 25.195312 38.078125 20.433594 40.597656 C 17.195312 42.316406 13.835938 42.929688 10.476562 42.5 C 7.726562 42.132812 5.589844 40.902344 4.246094 38.875 C 2.289062 35.867188 2.105469 32.613281 3.757812 29.355469 C 4.917969 27.023438 6.75 25.304688 7.910156 24.445312 C 7.664062 23.644531 7.300781 22.292969 7.117188 21.3125 C -1.742188 27.761719 -0.824219 36.480469 1.863281 40.597656 C 3.878906 43.667969 7.972656 45.570312 12.492188 45.570312 C 13.710938 45.570312 14.933594 45.449219 16.15625 45.140625 C 23.972656 43.605469 29.898438 38.9375 33.257812 32 Z M 44.007812 24.382812 C 39.367188 18.917969 32.527344 15.90625 24.707031 15.90625 L 23.730469 15.90625 C 23.179688 14.800781 22.019531 14.066406 20.738281 14.066406 L 20.613281 14.066406 C 18.722656 14.125 17.253906 15.722656 17.316406 17.628906 C 17.378906 19.46875 18.90625 20.945312 20.738281 20.945312 L 20.859375 20.945312 C 22.203125 20.882812 23.363281 20.023438 23.851562 18.855469 L 24.953125 18.855469 C 29.59375 18.855469 33.992188 20.207031 37.960938 22.847656 C 41.015625 24.875 43.214844 27.515625 44.4375 30.707031 C 45.476562 33.289062 45.414062 35.804688 44.316406 37.957031 C 42.605469 41.210938 39.734375 42.992188 35.945312 42.992188 C 33.503906 42.992188 31.183594 42.253906 29.960938 41.703125 C 29.289062 42.316406 28.066406 43.296875 27.210938 43.914062 C 29.839844 45.140625 32.527344 45.816406 35.089844 45.816406 C 40.957031 45.816406 45.292969 42.5625 46.941406 39.304688 C 48.710938 35.746094 48.589844 29.601562 44.007812 24.382812 Z M 12.980469 33.042969 C 13.039062 34.882812 14.566406 36.359375 16.398438 36.359375 L 16.523438 36.359375 C 18.417969 36.296875 19.882812 34.699219 19.820312 32.796875 C 19.761719 30.953125 18.234375 29.480469 16.398438 29.480469 L 16.277344 29.480469 C 16.15625 29.480469 15.972656 29.480469 15.851562 29.542969 C 13.347656 25.363281 12.308594 20.820312 12.675781 15.90625 C 12.917969 12.222656 14.140625 9.03125 16.277344 6.386719 C 18.050781 4.117188 21.46875 3.011719 23.792969 2.949219 C 30.265625 2.828125 33.015625 10.933594 33.199219 14.1875 C 33.992188 14.371094 35.335938 14.800781 36.253906 15.109375 C 35.519531 5.160156 29.410156 0 23.546875 0 C 18.050781 0 12.980469 3.992188 10.964844 9.890625 C 8.152344 17.75 9.988281 25.304688 13.40625 31.261719 C 13.101562 31.691406 12.917969 32.367188 12.980469 33.042969 Z M 12.980469 33.042969 "/>
</g>
</svg>
